<?xml version="1.0" encoding="utf-8"?>
<!-- Generator: Adobe Illustrator 22.0.1, SVG Export Plug-In . SVG Version: 6.00 Build 0)  -->
<svg version="1.1" id="Layer_1" xmlns="http://www.w3.org/2000/svg" xmlns:xlink="http://www.w3.org/1999/xlink" x="0px" y="0px"
	 viewBox="0 0 144 144" style="enable-background:new 0 0 144 144;" xml:space="preserve">
<style type="text/css">
	.st0{fill-rule:evenodd;clip-rule:evenodd;fill:#1C225C;}
	.st1{fill-rule:evenodd;clip-rule:evenodd;fill:#952057;}
	.st2{fill:#00528A;}
	.st3{fill:#952057;}
</style>
<g>
	<path class="st0" d="M104.7,81.9C93.8,92.7,80.9,101,69.3,103.9c-13.1,3.3-21.6-1.1-23.8-10.4c0.1,13.3,7.9,20.4,21.8,16.8
		c12.2-3.1,25.6-13.7,37.7-27.5c0.3-0.3,0.5-0.6,0.8-0.9H104.7z"/>
	<path class="st1" d="M98.9,40.7c-8.6,1.7-18.1,6.8-27.1,13.8c0.7-0.1,1.5-0.2,2.3-0.2c1.1,0,2,0.1,2.8,0.3
		c5.9-3.2,11.9-5.5,17.5-6.6c11.3-2.3,19,0.5,21.7,6.8c0.9-0.3,1.9-0.5,3-0.6C119.2,43.7,111.9,38.1,98.9,40.7z"/>
	<path class="st1" d="M96.9,82.5c-7.7,5.7-15.8,9.9-23.4,11.8c-13.1,3.3-21.6-1.1-23.8-10.4c0.1,13.3,7.9,20.4,21.8,16.8
		c9.3-2.4,19.3-9,28.8-18.2H96.9z"/>
	<path class="st0" d="M121.2,54.2c0.2,0,0.4,0,0.7,0c5.1-16.5-2.2-26.6-18.7-23.2c-12.3,2.5-26.6,11.8-38.2,23.7h1.6
		c10-8.1,21.6-14.4,32.2-16.5C114.6,35,123.2,41.9,121.2,54.2z"/>
	<g>
		<path class="st2" d="M33.1,80.9l5.2-24.5h5.7l-5.2,24.5H33.1z"/>
		<path class="st2" d="M38.8,54.2l1.3-6h5.7l-1.3,6H38.8z"/>
		<path class="st2" d="M55.3,65l0.3-1.6c0.4-2.1-0.1-3.2-1.2-3.2c-1.8,0-2.4,0.9-2.8,2.5l-2.6,12.1c-0.3,1.4,0.1,2.2,1.6,2.2
			c2,0,2.6-2,2.9-3.5l0.5-2.2h5.7l-0.6,3c-0.9,4.2-3.9,7.1-9.8,7.1c-5.3,0-6.7-2.8-5.7-7.8l2.1-10c1.1-5.3,4.1-7.8,9.4-7.8
			c4.9,0,7.4,2.1,6.3,7.1L61.1,65L55.3,65z"/>
		<path class="st2" d="M77.9,73.1c-1.2,5.5-3.7,8.4-9.5,8.4c-5.8,0-7.2-2.9-6-8.4l2.1-9.9c1-4.7,4.4-7.3,9.4-7.3
			c5,0,7.2,2.6,6.2,7.3L77.9,73.1z M74.2,63.5c0.3-1.5,0.6-3.3-1.3-3.3c-1.8,0-2.4,1.8-2.8,3.3l-2.1,10c-0.3,1.4-0.5,3.5,1.3,3.5
			c1.9,0,2.4-2.1,2.7-3.5L74.2,63.5z"/>
		<path class="st2" d="M87.1,67.2L87.1,67.2l-2.5,13.7h-5.4l5.2-24.5h5.9l1.5,13.7H92l2.4-13.7h5.4l-5.2,24.5h-5.9L87.1,67.2z"/>
		<path class="st2" d="M98,80.9l5.2-24.5h5.7l-5.2,24.5H98z"/>
		<path class="st2" d="M120.2,65l0.3-1.6c0.4-2.1-0.1-3.2-1.2-3.2c-1.8,0-2.4,0.9-2.8,2.5L114,74.9c-0.3,1.4,0.1,2.2,1.6,2.2
			c2,0,2.6-2,2.9-3.5l0.5-2.2h5.7l-0.6,3c-0.9,4.2-3.9,7.1-9.8,7.1c-5.3,0-6.7-2.8-5.7-7.8l2.1-10c1.1-5.3,4.1-7.8,9.4-7.8
			c4.9,0,7.4,2.1,6.3,7.1l-0.4,2.1L120.2,65z"/>
		<path class="st2" d="M131.8,72.7l-0.4,1.7c-0.3,1.4-0.1,2.6,1.7,2.6c1.3,0,2.2-1.2,2.4-2.4c0.4-2.1-1.1-2.8-2.4-3.8
			c-1.5-1-2.8-2-3.7-3.2c-0.8-1.2-1.1-2.7-0.6-4.9c1-4.6,4.2-6.9,8.7-6.9c5,0,6.8,3.3,5.6,7.9l-5.3,0c0.2-1.4,0.7-3.4-1.1-3.5
			c-1.2-0.1-2,0.6-2.3,1.6c-0.5,1.5,0.1,2.2,1.1,3c1.9,1.4,3.5,2.2,4.6,3.5c1.1,1.2,1.5,2.9,0.9,5.8c-1,4.7-4.2,7.3-8.9,7.3
			c-5.3,0-6.8-2.9-6.2-6.2l0.6-2.6H131.8z"/>
	</g>
	<polygon class="st3" points="2.3,55.5 2.3,81.7 27,68.6 	"/>
</g>
</svg>
